# Blender3D v248 OBJ File: 
# www.blender3d.org
v -1.089764 -0.578591 0.861431
v -0.366164 -0.025806 1.387151
v -1.366149 -0.025806 1.712071
v -1.984189 -0.025806 0.861431
v -1.366149 -0.025806 0.010791
v -0.366164 -0.025806 0.335711
v -0.813379 0.868624 1.712071
v -1.813364 0.868624 1.387151
v -1.813364 0.868624 0.335711
v -0.813379 0.868624 0.010791
v -0.195339 0.868624 0.861431
v -1.089764 1.421409 0.861431
v -0.664441 -0.429245 1.170442
v -1.252219 -0.429246 1.361426
v -0.826895 -0.104329 1.670442
v -0.664441 -0.429245 0.552419
v -0.239116 -0.104327 0.861431
v -1.615493 -0.429243 0.861431
v -1.777953 -0.104327 1.361428
v -1.252219 -0.429246 0.361435
v -1.777953 -0.104327 0.361434
v -0.826895 -0.104329 0.052419
v -0.138706 0.421409 0.552418
v -0.138706 0.421409 1.170443
v -0.501978 0.421409 1.670447
v -1.089764 0.421409 1.861431
v -1.677549 0.421409 1.670447
v -2.040822 0.421409 1.170443
v -2.040822 0.421409 0.552418
v -1.677549 0.421409 0.052414
v -1.089764 0.421409 -0.138569
v -0.501978 0.421409 0.052414
v -0.401574 0.947145 1.361428
v -1.352633 0.947146 1.670442
v -1.940412 0.947145 0.861431
v -1.352633 0.947146 0.052419
v -0.401574 0.947145 0.361434
v -0.564034 1.272060 0.861431
v -0.927308 1.272063 1.361426
v -1.515086 1.272063 1.170442
v -1.515086 1.272063 0.552419
v -0.927308 1.272063 0.361435
vn 0.262856 -0.525712 0.808985
vn 0.425306 -0.850642 0.309000
vn 0.723594 -0.447188 0.525712
vn -0.162450 -0.850642 0.499985
vn -0.276376 -0.447218 0.850642
vn 0.000000 -1.000000 0.000000
vn 0.850642 -0.525712 0.000000
vn 0.425306 -0.850642 -0.309000
vn 0.723594 -0.447188 -0.525712
vn -0.688162 -0.525712 0.499985
vn -0.525712 -0.850642 0.000000
vn -0.894406 -0.447188 0.000000
vn -0.688162 -0.525712 -0.499985
vn -0.162450 -0.850642 -0.499985
vn -0.276376 -0.447218 -0.850642
vn 0.262856 -0.525712 -0.808985
vn 0.951048 0.000000 0.309000
vn 0.951048 0.000000 -0.309000
vn 0.894406 0.447188 0.000000
vn 0.000000 0.000000 1.000000
vn 0.587756 0.000000 0.809015
vn 0.276376 0.447218 0.850642
vn -0.951048 0.000000 0.309000
vn -0.587756 0.000000 0.809015
vn -0.723594 0.447188 0.525712
vn -0.587756 0.000000 -0.809015
vn -0.951048 0.000000 -0.309000
vn -0.723594 0.447188 -0.525712
vn 0.587756 0.000000 -0.809015
vn 0.000000 0.000000 -1.000000
vn 0.276376 0.447218 -0.850642
vn 0.688162 0.525712 0.499985
vn -0.262856 0.525712 0.808985
vn -0.850642 0.525712 0.000000
vn -0.262856 0.525712 -0.808985
vn 0.688162 0.525712 -0.499985
vn 0.162450 0.850642 0.499985
vn 0.525712 0.850642 0.000000
vn 0.000000 1.000000 0.000000
vn -0.425306 0.850642 0.309000
vn -0.425306 0.850642 -0.309000
vn 0.162450 0.850642 -0.499985
usemtl (null)
s 1
f 15//1 13//2 2//3
f 13//2 15//1 14//4
f 3//5 14//4 15//1
f 14//4 1//6 13//2
f 17//7 2//3 13//2
f 13//2 16//8 17//7
f 6//9 17//7 16//8
f 13//2 1//6 16//8
f 19//10 14//4 3//5
f 14//4 19//10 18//11
f 4//12 18//11 19//10
f 18//11 1//6 14//4
f 21//13 18//11 4//12
f 18//11 21//13 20//14
f 5//15 20//14 21//13
f 20//14 1//6 18//11
f 22//16 20//14 5//15
f 20//14 22//16 16//8
f 6//9 16//8 22//16
f 16//8 1//6 20//14
f 24//17 2//3 17//7
f 17//7 23//18 24//17
f 11//19 24//17 23//18
f 23//18 17//7 6//9
f 26//20 3//5 15//1
f 15//1 25//21 26//20
f 7//22 26//20 25//21
f 25//21 15//1 2//3
f 28//23 4//12 19//10
f 19//10 27//24 28//23
f 8//25 28//23 27//24
f 27//24 19//10 3//5
f 30//26 5//15 21//13
f 21//13 29//27 30//26
f 9//28 30//26 29//27
f 29//27 21//13 4//12
f 32//29 6//9 22//16
f 22//16 31//30 32//29
f 10//31 32//29 31//30
f 31//30 22//16 5//15
f 33//32 24//17 11//19
f 24//17 33//32 25//21
f 7//22 25//21 33//32
f 25//21 2//3 24//17
f 34//33 26//20 7//22
f 26//20 34//33 27//24
f 8//25 27//24 34//33
f 27//24 3//5 26//20
f 35//34 28//23 8//25
f 28//23 35//34 29//27
f 9//28 29//27 35//34
f 29//27 4//12 28//23
f 36//35 30//26 9//28
f 30//26 36//35 31//30
f 10//31 31//30 36//35
f 31//30 5//15 30//26
f 37//36 32//29 10//31
f 32//29 37//36 23//18
f 11//19 23//18 37//36
f 23//18 6//9 32//29
f 39//37 7//22 33//32
f 33//32 38//38 39//37
f 12//39 39//37 38//38
f 38//38 33//32 11//19
f 40//40 8//25 34//33
f 34//33 39//37 40//40
f 12//39 40//40 39//37
f 39//37 34//33 7//22
f 41//41 9//28 35//34
f 35//34 40//40 41//41
f 12//39 41//41 40//40
f 40//40 35//34 8//25
f 42//42 10//31 36//35
f 36//35 41//41 42//42
f 12//39 42//42 41//41
f 41//41 36//35 9//28
f 38//38 11//19 37//36
f 37//36 42//42 38//38
f 12//39 38//38 42//42
f 42//42 37//36 10//31
v 0.400311 -0.431251 -0.518269
v 0.400311 -0.431251 0.710279
v -0.828237 -0.431251 0.710279
v -0.828237 -0.431251 -0.518269
v 0.400311 0.797296 -0.518268
v 0.400311 0.797296 0.710279
v -0.828237 0.797296 0.710279
v -0.828237 0.797296 -0.518269
vn 0.578387 0.578387 -0.575213
vn 0.575213 -0.578387 -0.578387
vn -0.578387 0.575213 -0.578387
vn -0.577349 -0.577349 -0.577349
vn -0.577349 -0.577349 0.577349
vn -0.576281 0.579455 0.576250
vn 0.579455 -0.576281 0.576281
vn 0.576250 0.576281 0.579455
usemtl Material.001
s 1
f 47//43 43//44 50//45
f 43//44 46//46 50//45
f 45//47 49//48 50//45
f 45//47 50//45 46//46
f 44//49 48//50 45//47
f 48//50 49//48 45//47
f 43//44 47//43 44//49
f 47//43 48//50 44//49
f 47//43 50//45 49//48
f 47//43 49//48 48//50
f 43//44 44//49 45//47
f 43//44 45//47 46//46
